<?xml version="1.0" encoding="UTF-8"?>
<svg id="Capa_1" data-name="Capa 1" xmlns="http://www.w3.org/2000/svg" xmlns:xlink="http://www.w3.org/1999/xlink" viewBox="0 0 1136 690.56">
  <defs>
    <style>
      .cls-1, .cls-2 {
        fill: none;
      }

      .cls-3 {
        fill: #2f373f;
        opacity: .8;
      }

      .cls-4 {
        fill-rule: evenodd;
      }

      .cls-4, .cls-5, .cls-6 {
        fill: #f8ebeb;
      }

      .cls-5, .cls-2 {
        clip-rule: evenodd;
      }

      .cls-7 {
        clip-path: url(#clippath-1);
      }

      .cls-8 {
        clip-path: url(#clippath-3);
      }

      .cls-9 {
        clip-path: url(#clippath-2);
      }

      .cls-10 {
        fill: #141f25;
      }

      .cls-11 {
        clip-path: url(#clippath);
      }
    </style>
    <clipPath id="clippath">
      <path class="cls-5" d="M1429.27-730.26c-7.42,30.91,7.91,60.69,36.26,70.4,122.49,49,350.21,176.58,348.12,245.04-2.09,68.45-234.83,221.42-364.41,287.7-29.08,13.22-46.32,45.04-40.71,75.16,5.65,31.13,32.26,52.17,64.12,50.69,10.51-.78,20.94-3.79,30.62-8.85,4.34-2.18,438.81-232.38,440.55-413,9.36-182.06-412.66-359.48-416.87-361.13-9.4-3.88-19.69-5.61-30.19-5.08-31.94,2.58-59.92,27.08-67.48,59.07Z"/>
    </clipPath>
    <clipPath id="clippath-1">
      <path class="cls-2" d="M1595.24,138.73c-26.66-37.38-74.53-49.22-113.19-27.97-174.77,85.12-539.81,208.65-613.01,141.29-73.19-67.35-11.67-463.13,43.34-665.51,14.17-43.85-3.81-92.66-42.46-115.26-39.8-23.54-89.19-14.93-119.02,20.74-9.52,12.04-16.5,26.13-20.49,41.34-1.88,6.74-177.61,692.9,19.27,866.56,190.94,183.22,802.53-101.85,808.52-104.81,13.54-6.42,25.59-15.84,35.38-27.63,28.69-36.8,29.37-90.19,1.65-128.75Z"/>
    </clipPath>
    <clipPath id="clippath-2">
      <path class="cls-2" d="M-20.59,817.1c19.9,10.54,43.48,5.22,55.77-12.58,57.95-75.68,190.9-209.96,237.78-196.49,46.88,13.47,106.77,200.51,127.06,301.32,3.41,22.34,22.01,39.79,43.91,41.22,22.62,1.58,42.39-13.03,47.64-35.22,1.53-7.37,1.5-15.08-.09-22.62-.66-3.37-74.2-342.8-198.64-375.74-123.94-38.43-329.54,220.8-331.51,223.41-4.53,5.79-7.75,12.56-9.45,19.88-4.5,22.43,6.92,45.99,27.53,56.81Z"/>
    </clipPath>
    <clipPath id="clippath-3">
      <path class="cls-2" d="M243.33-235.76c-22.46,1.59-39.66,18.58-40.66,40.19-9.12,94.88-50.86,279.18-97.76,292.56C58,110.37-91.8-16.64-162.37-91.44c-14.71-17.15-39.73-22.12-59.07-11.73-20.03,10.63-29.07,33.49-21.78,55.09,2.6,7.06,6.71,13.59,12.05,19.15,2.34,2.51,244.38,251.59,367.39,213.68,125.5-32.98,162.75-361.74,163.05-365,.78-7.3-.08-14.76-2.5-21.87-8.05-21.42-30.21-35.36-53.43-33.63Z"/>
    </clipPath>
  </defs>
  <g>
    <path class="cls-4" d="M1429.27-730.26c-7.42,30.91,7.91,60.69,36.26,70.4,122.49,49,350.21,176.58,348.12,245.04-2.09,68.45-234.83,221.42-364.41,287.7-29.08,13.22-46.32,45.04-40.71,75.16,5.65,31.13,32.26,52.17,64.12,50.69,10.51-.78,20.94-3.79,30.62-8.85,4.34-2.18,438.81-232.38,440.55-413,9.36-182.06-412.66-359.48-416.87-361.13-9.4-3.88-19.69-5.61-30.19-5.08-31.94,2.58-59.92,27.08-67.48,59.07Z"/>
    <g class="cls-11">
      <polygon class="cls-6" points="2017.25 76.19 2016.62 -880.04 1067.47 -851.39 1068.11 104.84 2017.25 76.19"/>
    </g>
  </g>
  <rect class="cls-10" width="1136" height="690.56"/>
  <g class="cls-7">
    <rect class="cls-3" x="414.45" y="-760.66" width="1384.82" height="1390.2" transform="translate(432.89 814.89) rotate(-49.18)"/>
  </g>
  <g class="cls-9">
    <rect class="cls-3" x="-101.13" y="458.66" width="679.03" height="681.66" transform="translate(-595.18 833.99) rotate(-75.77)"/>
  </g>
  <g class="cls-8">
    <rect class="cls-3" x="-307.92" y="-423.27" width="681.66" height="679.03" transform="translate(27.06 6.04) rotate(-17.72)"/>
  </g>
  <rect class="cls-1" width="1136" height="690.56"/>
</svg>